<svg version="1" xmlns="http://www.w3.org/2000/svg" width="325.333" height="325.333" viewBox="0 0 244.000000 244.000000"><path d="M49.1 16.2c-5.8 12.3-7.8 27.1-4.6 35.5 3.5 9.6 10.5 14.5 27 19 13.5 3.7 16.2 5.4 17.3 10.5.8 4 .6 4.6-2.5 8.3-10.2 12.3-21 30-26.2 43-1.3 3.3-2.9 7.3-3.6 9-6.9 16.2-13 55.2-12.3 78.9.3 14.4.5 14.6 8 14.6 7.9 0 7.8.1 7.8-11.7 0-32 7.3-70.5 17.7-92.8 8.7-18.9 23.7-36.8 38.7-46.3 12.6-7.9 30.2-9.9 43-4.7 14.8 6 25.2 22.2 28.7 44.6 1.3 8.5.6 47.4-1.1 55.4-.6 2.7-1.4 6.8-1.8 9l-.7 4-41.2.5c-22.6.3-41.3.7-41.6 1-.2.3-2.1 7.5-4.1 16-2 8.5-4.1 17.3-4.7 19.4-.8 3-.8 4.1.3 4.7.7.5 22.5.9 48.5.9 51.1 0 50.3.1 50.3-5.3 0-1.2.7-5.4 1.6-9.2 4.1-19.3 8-42.1 9.5-55.5 1.3-12.1 1.3-46.2 0-56-4.2-31.2-14.4-54.2-30.4-69-8.3-7.6-21.7-14-30.1-14.4-2.7-.1-3.1.3-3.4 2.9-.6 5.2-4.4 14.8-8.3 20.5-6 9.1-21.1 22-25.6 22-4.6 0-6.4-8.8-4.3-21.2 1.5-9.5-1.7-17.1-8.6-20.6-1.1-.6-6.4-1.8-11.8-2.7-14.7-2.3-17.9-4-21.2-11.3-1.2-2.7-2-3.2-4.8-3.2-3 0-3.7.5-5.5 4.2z"/></svg>