<?xml version="1.0" standalone="no"?>
<!DOCTYPE svg PUBLIC "-//W3C//DTD SVG 20010904//EN"
 "http://www.w3.org/TR/2001/REC-SVG-20010904/DTD/svg10.dtd">
<svg version="1.0" xmlns="http://www.w3.org/2000/svg"
 width="700.000000pt" height="700.000000pt" viewBox="0 0 700.000000 700.000000"
 preserveAspectRatio="xMidYMid meet">
<metadata>
Created by potrace 1.11, written by Peter Selinger 2001-2013
</metadata>
<g transform="translate(0.000000,700.000000) scale(0.100000,-0.100000)"
fill="#000000" stroke="none">
<path d="M3507 6263 c-11 -18 10 -129 39 -215 56 -166 275 -523 500 -818 52
-69 143 -188 202 -266 106 -139 275 -349 445 -553 49 -58 116 -140 149 -181
33 -41 70 -88 84 -105 75 -94 183 -373 200 -520 4 -27 10 -72 15 -100 6 -40 5
-341 -2 -405 -5 -51 -43 -206 -64 -265 -29 -79 -167 -330 -234 -425 -52 -73
-153 -180 -171 -180 -8 0 -11 47 -11 173 1 300 -5 631 -13 673 -4 25 -3 59 4
83 14 52 19 276 8 348 -5 30 -16 69 -25 87 -22 42 -104 121 -152 145 -61 32
-175 59 -296 71 -60 6 -128 13 -150 15 -76 9 -196 14 -368 15 -303 2 -600 0
-596 -4 2 -2 24 -7 49 -10 25 -4 56 -9 70 -11 29 -5 156 -16 345 -30 44 -3 96
-7 115 -10 19 -2 67 -7 105 -10 80 -7 102 -9 280 -29 150 -17 192 -28 230 -58
23 -18 26 -26 20 -57 -15 -85 -144 -142 -440 -197 -103 -19 -106 -22 -15 -18
52 3 109 7 126 9 17 2 36 0 41 -3 6 -4 14 -40 17 -81 4 -41 9 -77 11 -81 8
-12 15 -239 7 -244 -4 -2 -35 -7 -67 -11 -33 -3 -76 -8 -95 -10 -19 -2 -63 -7
-97 -10 -34 -4 -66 -12 -72 -18 -5 -7 -12 -46 -15 -87 -3 -41 -9 -111 -12
-155 -4 -44 -6 -115 -5 -157 l2 -78 -28 -1 c-70 -3 -243 -18 -283 -25 -88 -15
-92 -27 -105 -294 -9 -197 -10 -329 -1 -337 10 -10 403 -11 481 0 237 31 456
92 613 171 135 68 313 195 407 290 72 74 215 259 215 279 0 2 23 44 51 93 109
190 158 358 175 609 13 178 6 252 -35 425 -39 160 -84 261 -212 480 -18 32
-82 119 -105 146 -53 59 -150 169 -159 178 -36 39 -84 97 -110 131 -16 21 -48
60 -71 85 -22 25 -62 74 -89 110 -27 36 -64 81 -81 100 -18 19 -52 61 -76 92
-23 31 -63 83 -87 115 -25 32 -59 74 -76 93 -32 35 -69 88 -207 300 -180 276
-250 395 -297 507 -50 121 -83 227 -73 237 3 3 3 6 -1 6 -3 0 -8 -3 -10 -7z
m780 -3219 c-3 -3 -12 -4 -19 -1 -8 3 -5 6 6 6 11 1 17 -2 13 -5z m204 -581
c13 -16 12 -17 -3 -4 -17 13 -22 21 -14 21 2 0 10 -8 17 -17z"/>
<path d="M3335 6120 c-3 -5 17 -21 44 -35 36 -17 49 -29 45 -40 -10 -24 14
-17 32 10 9 14 13 32 10 42 -6 15 -8 15 -16 3 -8 -12 -16 -11 -55 8 -52 25
-52 25 -60 12z"/>
<path d="M3291 6019 c-27 -29 -27 -69 -1 -97 42 -45 112 -16 116 48 2 34 -20
57 -63 66 -24 5 -35 1 -52 -17z"/>
<path d="M3170 5800 c-15 -37 -3 -53 17 -23 20 29 45 20 33 -12 -12 -31 5 -43
20 -14 9 15 15 18 23 10 8 -8 8 -14 -1 -23 -16 -16 -15 -28 1 -28 7 0 21 13
30 30 17 28 17 29 -5 41 -13 7 -38 21 -56 31 -43 24 -47 23 -62 -12z"/>
<path d="M3120 5721 c0 -6 14 -18 30 -28 40 -23 38 -30 -10 -28 -60 2 -69 -18
-23 -46 21 -12 48 -29 61 -37 19 -13 22 -12 22 2 0 9 -15 25 -32 36 -19 11
-26 20 -18 21 8 0 29 2 45 2 60 4 61 17 4 53 -55 34 -79 42 -79 25z"/>
<path d="M3045 5590 c-3 -5 4 -15 16 -24 21 -14 21 -15 -12 -18 -19 -2 -32 -7
-30 -13 2 -5 11 -9 20 -7 9 1 27 -11 39 -27 20 -27 25 -29 47 -19 25 11 39 34
30 48 -11 17 -104 69 -110 60z"/>
<path d="M2975 5491 c-8 -14 98 -92 109 -81 5 5 8 11 5 13 -2 2 -22 17 -44 33
-55 42 -63 46 -70 35z"/>
<path d="M2910 5392 c-19 -19 -28 -36 -24 -46 8 -22 24 -20 24 3 0 27 26 44
54 37 38 -9 43 -43 12 -75 -31 -33 -33 -41 -6 -34 50 13 72 82 37 118 -31 30
-64 29 -97 -3z"/>
<path d="M2830 5297 c0 -7 9 -18 20 -25 17 -10 19 -16 10 -33 -11 -19 -13 -19
-36 -4 -41 27 -47 5 -7 -27 47 -37 73 -51 80 -44 4 3 -2 15 -12 26 -15 16 -16
22 -5 35 12 14 15 14 30 0 20 -18 30 -19 30 -2 0 12 -89 87 -104 87 -3 0 -6
-6 -6 -13z"/>
<path d="M2695 5121 c-6 -10 15 -34 52 -58 13 -9 22 -22 19 -29 -9 -24 11 -24
34 1 24 26 20 46 -8 39 -9 -2 -32 9 -51 26 -38 34 -38 34 -46 21z"/>
<path d="M2640 5053 c0 -4 9 -16 20 -28 18 -20 19 -23 5 -35 -12 -10 -19 -9
-39 4 -18 11 -26 12 -28 4 -5 -13 83 -88 102 -88 14 0 12 11 -5 30 -9 10 -13
25 -9 34 8 20 18 20 34 1 12 -15 30 -12 30 5 0 8 -93 80 -104 80 -3 0 -6 -3
-6 -7z"/>
<path d="M2532 4920 c-24 -32 -12 -52 16 -26 25 21 50 5 27 -17 -23 -24 -8
-43 16 -21 23 21 38 10 21 -16 -18 -30 4 -33 27 -4 24 31 22 36 -42 82 l-44
31 -21 -29z"/>
<path d="M2435 4790 c-3 -5 6 -17 20 -26 18 -12 23 -20 16 -27 -6 -6 -11 -17
-11 -23 0 -14 27 -44 40 -44 10 0 50 40 50 50 0 6 -96 80 -104 80 -3 0 -7 -4
-11 -10z"/>
<path d="M2364 4689 c-3 -6 2 -17 12 -24 18 -13 17 -14 -8 -15 -38 0 -43 -16
-8 -24 17 -3 30 -12 30 -20 0 -9 10 -20 21 -27 18 -9 25 -7 46 14 14 14 23 29
20 34 -12 20 -107 72 -113 62z"/>
<path d="M2281 4567 c-21 -34 -9 -55 14 -23 7 9 19 14 28 10 14 -5 15 -8 2
-28 -14 -21 -12 -36 6 -36 4 0 11 9 14 21 5 16 10 18 18 10 9 -9 8 -17 -1 -31
-10 -17 -10 -20 3 -20 19 0 52 49 39 58 -6 4 -31 22 -56 39 l-46 33 -21 -33z"/>
<path d="M2228 4489 c-10 -5 -18 -21 -18 -34 0 -28 27 -39 70 -30 32 7 38 -2
18 -24 -11 -10 -8 -12 12 -9 19 2 26 10 28 31 2 15 -1 28 -7 28 -6 1 -17 2
-23 3 -7 1 -23 -1 -35 -6 -28 -9 -42 10 -20 27 28 20 6 32 -25 14z"/>
<path d="M2153 4375 c-18 -27 -19 -34 -8 -39 8 -3 17 3 20 15 10 31 30 16 27
-20 -2 -35 12 -41 28 -11 6 11 15 18 21 15 5 -4 5 -14 -2 -26 -17 -34 1 -36
26 -5 l24 30 -32 21 c-88 59 -80 58 -104 20z"/>
<path d="M2107 4297 c-3 -8 8 -22 26 -33 l32 -19 -49 -5 c-27 -3 -51 -10 -53
-15 -3 -9 95 -75 111 -75 3 0 6 6 6 14 0 7 -14 19 -30 26 -17 7 -29 15 -26 17
4 4 47 11 79 12 24 1 21 26 -5 39 -13 6 -37 20 -54 32 -25 16 -33 18 -37 7z"/>
<path d="M2020 4150 c0 -5 21 -21 46 -36 28 -17 43 -32 40 -40 -10 -27 24 -13
39 15 15 30 7 49 -15 36 -6 -4 -29 3 -51 14 -44 23 -59 26 -59 11z"/>
<path d="M1954 4007 c8 -31 -8 -67 -29 -67 -21 0 -19 -20 3 -21 9 0 41 -2 70
-5 44 -3 52 -1 52 14 0 10 -10 26 -22 37 -13 11 -36 31 -52 45 l-29 25 7 -28z"/>
<path d="M1885 3870 c-6 -9 5 -15 55 -32 9 -3 -2 -10 -26 -17 -66 -18 -72 -35
-22 -54 70 -25 86 -28 93 -18 3 6 -11 18 -32 27 l-38 17 35 7 c76 14 77 34 5
61 -58 22 -62 22 -70 9z"/>
<path d="M1836 3731 c-16 -24 -15 -70 2 -89 40 -46 94 -32 120 30 11 27 10 28
-30 38 -22 6 -51 15 -64 20 -13 5 -26 6 -28 1z"/>
<path d="M1794 3495 c-36 -36 -22 -95 26 -108 17 -4 20 0 20 29 0 38 -7 42
-26 17 -12 -17 -13 -16 -14 7 0 32 10 45 37 52 40 10 59 -27 38 -75 -11 -26 4
-35 21 -13 33 46 2 116 -51 116 -14 0 -37 -11 -51 -25z"/>
<path d="M1781 3341 c-7 -5 -13 -21 -13 -36 0 -36 16 -45 80 -45 38 0 52 4 52
14 0 10 -12 13 -42 11 -52 -2 -68 3 -68 21 0 14 8 16 73 17 23 1 37 6 37 14 0
15 -96 18 -119 4z"/>
<path d="M1770 3211 c0 -5 7 -14 15 -21 18 -15 20 -51 3 -68 -26 -26 6 -24 60
4 84 44 77 57 -50 88 -16 3 -28 2 -28 -3z"/>
<path d="M1846 3067 c-27 -7 -51 -18 -54 -26 -4 -11 2 -12 24 -7 l29 8 -21
-24 c-28 -31 -21 -55 9 -28 16 15 29 19 54 14 29 -5 33 -3 39 20 7 31 -1 56
-18 55 -7 0 -35 -6 -62 -12z"/>
<path d="M1820 2929 c0 -6 9 -13 19 -16 21 -5 33 -47 18 -62 -5 -5 -7 -15 -5
-21 2 -7 27 7 61 35 47 38 56 50 46 61 -14 17 -139 20 -139 3z"/>
<path d="M1920 2810 c-41 -21 -51 -30 -38 -35 9 -4 25 -2 37 4 31 17 33 14 10
-30 -11 -23 -17 -45 -12 -49 4 -4 33 5 65 20 41 19 54 30 48 40 -7 11 -13 10
-34 -3 -41 -27 -49 -20 -21 20 46 69 31 78 -55 33z"/>
<path d="M2037 2724 c-3 -3 -3 -12 -1 -19 3 -7 -14 -24 -40 -39 -25 -15 -46
-31 -46 -36 0 -15 14 -12 63 15 29 17 48 22 52 15 15 -24 24 3 10 30 -16 31
-29 43 -38 34z"/>
<path d="M2050 2604 c-25 -20 -46 -39 -48 -44 -2 -5 4 -21 14 -35 20 -31 42
-19 25 13 -14 27 16 40 34 15 18 -25 31 -8 17 22 -14 29 3 36 23 8 7 -9 17
-13 24 -9 8 5 5 16 -11 36 -13 16 -25 29 -28 29 -3 0 -25 -16 -50 -35z"/>
<path d="M2111 2511 l-44 -39 19 -26 c20 -27 30 -31 38 -17 3 5 -1 14 -9 21
-12 10 -13 16 -4 27 10 11 15 11 30 -3 23 -21 38 -10 21 16 -14 23 1 36 18 15
15 -19 30 -19 30 -2 0 15 -32 47 -46 47 -5 -1 -29 -18 -53 -39z"/>
<path d="M2256 2431 c-4 -5 -1 -11 5 -13 6 -2 -5 -21 -25 -43 -19 -22 -36 -43
-36 -47 0 -19 30 -5 58 27 20 21 38 32 47 29 22 -9 18 12 -7 36 -24 22 -34 25
-42 11z"/>
<path d="M2302 2318 c-39 -50 -41 -78 -3 -44 36 33 62 11 35 -29 -31 -47 -2
-41 42 10 24 27 44 53 44 57 0 13 -22 9 -40 -7 -15 -14 -18 -14 -30 0 -10 12
-10 19 -2 27 14 14 16 38 3 38 -4 0 -27 -24 -49 -52z"/>
<path d="M2413 2234 l-37 -56 24 -19 c14 -10 28 -19 33 -19 13 0 8 22 -8 34
-9 7 -12 16 -6 25 7 10 13 11 31 1 29 -16 38 -5 15 20 -22 24 -14 36 14 21 14
-8 22 -8 26 0 4 6 5 11 4 13 -2 1 -16 10 -31 19 l-28 17 -37 -56z"/>
<path d="M2562 2130 c-26 -46 -30 -60 -18 -60 8 0 20 9 26 20 8 15 17 19 35
14 27 -7 36 13 10 22 -25 10 -17 27 10 20 34 -9 34 17 0 32 -14 7 -27 12 -28
12 -1 0 -17 -27 -35 -60z"/>
<path d="M2654 2088 c-24 -58 -23 -68 6 -86 28 -17 53 -2 79 48 23 45 26 60
11 60 -5 0 -19 -18 -30 -39 -11 -22 -25 -43 -31 -46 -23 -15 -27 12 -9 54 23
51 24 61 8 61 -7 0 -23 -24 -34 -52z"/>
<path d="M2780 2081 c0 -6 4 -12 10 -16 5 -3 1 -24 -11 -51 -18 -43 -18 -64 0
-64 4 0 15 23 25 51 13 34 23 49 32 45 25 -10 14 21 -11 32 -31 14 -45 15 -45
3z"/>
<path d="M2877 2043 c-2 -5 -10 -32 -18 -62 -12 -50 -12 -54 6 -67 41 -30 73
-3 99 84 14 43 -21 23 -38 -23 -16 -41 -33 -55 -49 -39 -3 4 2 28 12 55 10 26
16 50 13 53 -8 8 -20 7 -25 -1z"/>
<path d="M3005 2000 c-3 -5 -13 -32 -21 -60 -17 -56 -8 -93 11 -46 l12 28 6
-31 c8 -40 35 -43 29 -3 -2 18 2 33 12 41 19 16 21 45 4 58 -22 17 -47 23 -53
13z"/>
<path d="M3111 1919 c-15 -75 -16 -73 16 -81 37 -10 54 8 20 21 -35 13 -27 44
9 35 34 -9 31 14 -3 28 l-28 12 33 4 c41 4 37 24 -5 33 -31 6 -31 6 -42 -52z"/>
<path d="M1745 1240 c-9 -51 -19 -98 -22 -106 -3 -8 1 -14 10 -14 11 0 18 14
22 48 14 101 18 102 50 19 16 -41 32 -74 35 -72 4 2 19 36 35 75 15 38 30 68
33 66 2 -3 6 -26 9 -52 6 -57 20 -97 32 -90 8 6 -21 191 -32 203 -4 3 -10 -3
-13 -13 -10 -28 -56 -139 -59 -142 -1 -1 -15 28 -30 65 -49 116 -50 117 -70
13z"/>
<path d="M2348 1323 c-9 -18 -2 -198 7 -200 6 -2 10 6 10 17 1 31 10 31 40 0
16 -17 32 -30 37 -30 17 0 7 22 -19 45 l-28 23 29 31 c21 21 25 31 15 31 -9 0
-26 -11 -39 -25 -13 -14 -26 -25 -30 -25 -4 0 -6 30 -5 66 1 58 -7 88 -17 67z"/>
<path d="M4550 1224 c0 -77 3 -105 12 -102 6 2 12 20 13 40 3 42 11 58 31 58
18 0 32 -35 29 -72 -2 -18 2 -28 11 -28 19 0 19 80 1 105 -11 14 -22 17 -45
12 l-32 -6 0 49 c0 28 -4 50 -10 50 -6 0 -10 -42 -10 -106z"/>
<path d="M3721 1310 c-10 -5 -11 -189 -2 -191 3 -1 27 -2 54 -3 34 -2 47 2 47
12 0 8 -9 13 -22 12 -53 -5 -58 -2 -58 38 0 37 1 39 33 37 37 -3 59 4 52 15
-2 4 -23 6 -45 5 -40 -2 -41 -1 -38 29 3 29 6 31 41 30 22 0 36 4 34 10 -4 11
-81 16 -96 6z"/>
<path d="M2110 1294 c0 -14 3 -14 15 -4 8 7 15 14 15 16 0 2 -7 4 -15 4 -8 0
-15 -7 -15 -16z"/>
<path d="M3217 1284 c-3 -3 -3 -12 0 -20 3 -8 -2 -17 -11 -20 -15 -6 -15 -8
-2 -23 8 -9 13 -33 12 -58 -1 -27 3 -44 11 -47 10 -4 13 8 13 48 0 34 5 57 13
60 10 5 10 7 0 12 -7 3 -13 17 -13 30 0 23 -10 31 -23 18z"/>
<path d="M4317 1284 c-3 -3 -3 -13 0 -21 3 -8 0 -19 -8 -24 -10 -7 -11 -11 -2
-17 6 -4 13 -30 15 -57 4 -65 23 -65 21 0 -1 29 3 53 10 58 9 7 9 10 0 14 -7
2 -13 16 -13 29 0 23 -10 31 -23 18z"/>
<path d="M2986 1242 c-3 -6 -24 -8 -46 -5 -38 5 -41 4 -55 -31 -15 -35 -15
-39 6 -67 18 -26 26 -30 48 -24 14 4 35 7 47 7 18 0 20 6 18 59 -1 60 -7 78
-18 61z"/>
<path d="M4029 1229 c-15 -15 -17 -24 -9 -39 6 -11 19 -20 30 -20 23 0 37 -20
21 -30 -7 -4 -24 -5 -39 -2 -24 5 -26 4 -13 -11 18 -23 47 -21 71 3 25 25 19
37 -28 57 -33 14 -35 16 -19 28 10 7 27 10 39 7 13 -3 19 -1 15 5 -13 21 -48
22 -68 2z"/>
<path d="M5120 1188 c0 -50 4 -68 13 -68 9 0 12 9 9 29 -5 34 13 71 33 71 8 0
15 5 15 10 0 6 -9 10 -20 10 -11 0 -20 -5 -20 -12 0 -6 -7 -3 -15 8 -13 17
-14 13 -15 -48z"/>
<path d="M2110 1174 c0 -41 4 -63 10 -59 6 3 10 33 10 66 0 33 -4 59 -10 59
-6 0 -10 -29 -10 -66z"/>
<path d="M2610 1236 c0 -4 14 -35 32 -69 l31 -62 28 60 c31 67 33 75 19 75 -6
0 -19 -19 -29 -42 l-18 -43 -19 39 c-16 34 -44 60 -44 42z"/>
<path d="M4837 1228 c-23 -18 -31 -69 -15 -90 18 -25 69 -33 93 -14 27 20 14
30 -19 15 -22 -11 -29 -10 -43 4 -23 22 -12 30 42 29 37 -1 45 2 45 17 0 41
-66 66 -103 39z"/>
<path d="M3220 859 c0 -5 5 -7 10 -4 6 3 10 8 10 11 0 2 -4 4 -10 4 -5 0 -10
-5 -10 -11z"/>
<path d="M3283 805 c0 -38 1 -62 4 -53 4 16 6 16 29 1 34 -22 41 -10 9 15
l-26 21 26 17 c14 9 23 19 21 22 -3 2 -16 -3 -30 -11 -25 -17 -25 -17 -29 21
-2 20 -4 6 -4 -33z"/>
<path d="M3660 848 c-5 -48 -2 -123 4 -117 2 2 7 19 9 38 12 71 65 61 58 -11
-1 -9 2 -19 7 -22 12 -7 9 64 -2 83 -5 8 -19 11 -37 7 -24 -5 -28 -2 -32 22
l-4 27 -3 -27z"/>
<path d="M2780 796 c0 -65 0 -66 28 -66 20 0 23 3 12 9 -8 6 -18 8 -22 5 -4
-3 -6 20 -4 51 2 30 0 58 -5 61 -5 3 -9 -24 -9 -60z"/>
<path d="M2894 806 c-12 -19 -13 -29 -4 -45 11 -22 15 -23 66 -25 29 -1 30 0
30 45 l-1 46 -37 1 c-30 2 -41 -3 -54 -22z"/>
<path d="M3029 820 c0 -3 -2 -13 -4 -23 -2 -9 0 -29 5 -45 l8 -27 2 28 c4 43
4 45 18 59 11 11 16 10 28 -6 7 -11 12 -30 10 -43 -3 -12 0 -25 5 -28 5 -4 9
9 9 28 0 67 52 74 54 8 1 -17 5 -31 9 -31 7 0 4 65 -2 87 -2 4 -141 -2 -142
-7z"/>
<path d="M3220 787 c0 -26 4 -47 8 -47 9 0 8 78 -2 87 -3 4 -6 -15 -6 -40z"/>
<path d="M3402 785 c12 -25 24 -45 27 -45 9 0 42 83 36 88 -3 3 -11 -10 -19
-29 l-14 -34 -19 33 c-27 48 -36 39 -11 -13z"/>
<path d="M3528 816 c-42 -31 -9 -87 48 -83 33 2 34 3 34 47 0 44 -1 45 -33 47
-17 1 -40 -4 -49 -11z"/>
<path d="M3872 818 c-19 -19 -15 -66 7 -78 24 -12 66 2 75 26 16 41 -50 84
-82 52z"/>
<path d="M4001 783 c1 -47 1 -47 9 -13 5 18 16 40 26 47 16 12 15 13 -9 13
-26 0 -27 -2 -26 -47z"/>
<path d="M4086 814 c-28 -27 -13 -83 18 -71 8 3 18 2 21 -3 3 -5 13 -6 22 -3
11 4 14 2 11 -8 -3 -9 -18 -14 -41 -13 -40 1 -42 -11 -2 -18 48 -10 66 29 56
117 -2 17 -68 16 -85 -1z"/>
</g>
</svg>
